<svg width="29" height="29" viewBox="0 0 29 29" fill="none" xmlns="http://www.w3.org/2000/svg">
<path d="M15 7.3125C11 7.3125 7.8125 10.5625 7.8125 14.5C7.8125 18.5 11 21.6875 15 21.6875C18.9375 21.6875 22.1875 18.5 22.1875 14.5C22.1875 10.5625 18.9375 7.3125 15 7.3125ZM15 19.1875C12.4375 19.1875 10.3125 17.125 10.3125 14.5C10.3125 11.9375 12.375 9.875 15 9.875C17.5625 9.875 19.625 11.9375 19.625 14.5C19.625 17.125 17.5625 19.1875 15 19.1875ZM24.125 7.0625C24.125 6.125 23.375 5.375 22.4375 5.375C21.5 5.375 20.75 6.125 20.75 7.0625C20.75 8 21.5 8.75 22.4375 8.75C23.375 8.75 24.125 8 24.125 7.0625ZM28.875 8.75C28.75 6.5 28.25 4.5 26.625 2.875C25 1.25 23 0.75 20.75 0.625C18.4375 0.5 11.5 0.5 9.1875 0.625C6.9375 0.75 5 1.25 3.3125 2.875C1.6875 4.5 1.1875 6.5 1.0625 8.75C0.9375 11.0625 0.9375 18 1.0625 20.3125C1.1875 22.5625 1.6875 24.5 3.3125 26.1875C5 27.8125 6.9375 28.3125 9.1875 28.4375C11.5 28.5625 18.4375 28.5625 20.75 28.4375C23 28.3125 25 27.8125 26.625 26.1875C28.25 24.5 28.75 22.5625 28.875 20.3125C29 18 29 11.0625 28.875 8.75ZM25.875 22.75C25.4375 24 24.4375 24.9375 23.25 25.4375C21.375 26.1875 17 26 15 26C12.9375 26 8.5625 26.1875 6.75 25.4375C5.5 24.9375 4.5625 24 4.0625 22.75C3.3125 20.9375 3.5 16.5625 3.5 14.5C3.5 12.5 3.3125 8.125 4.0625 6.25C4.5625 5.0625 5.5 4.125 6.75 3.625C8.5625 2.875 12.9375 3.0625 15 3.0625C17 3.0625 21.375 2.875 23.25 3.625C24.4375 4.0625 25.375 5.0625 25.875 6.25C26.625 8.125 26.4375 12.5 26.4375 14.5C26.4375 16.5625 26.625 20.9375 25.875 22.75Z" fill="white"/>
</svg>
