<svg width="24" height="24" viewBox="0 0 24 24" fill="none" xmlns="http://www.w3.org/2000/svg">
<path d="M12 7.875C9.70312 7.875 7.875 9.75 7.875 12C7.875 14.2969 9.70312 16.125 12 16.125C14.25 16.125 16.125 14.2969 16.125 12C16.125 9.75 14.25 7.875 12 7.875ZM12 13.875C10.9219 13.875 10.125 13.0781 10.125 12C10.125 10.9688 10.9219 10.125 12 10.125C13.0312 10.125 13.875 10.9688 13.875 12C13.875 13.0781 13.0312 13.875 12 13.875ZM23.25 10.875H20.9062C20.3906 6.84375 17.1562 3.60938 13.125 3.09375V0.75C13.125 0.375 12.75 0 12.375 0H11.625C11.2031 0 10.875 0.375 10.875 0.75V3.09375C6.79688 3.60938 3.5625 6.84375 3.04688 10.875H0.75C0.328125 10.875 0 11.25 0 11.625V12.375C0 12.7969 0.328125 13.125 0.75 13.125H3.04688C3.5625 17.2031 6.79688 20.4375 10.875 20.9531V23.25C10.875 23.6719 11.2031 24 11.625 24H12.375C12.75 24 13.125 23.6719 13.125 23.25V20.9531C17.1562 20.4375 20.3906 17.2031 20.9062 13.125H23.25C23.625 13.125 24 12.7969 24 12.375V11.625C24 11.25 23.625 10.875 23.25 10.875ZM12 18.75C8.25 18.75 5.25 15.75 5.25 12C5.25 8.29688 8.25 5.25 12 5.25C15.7031 5.25 18.75 8.29688 18.75 12C18.75 15.75 15.7031 18.75 12 18.75Z" fill="#333333"/>
</svg>
